<mxfile host="app.diagrams.net" modified="2023-02-20T03:33:05.687Z" agent="5.0 (Windows NT 10.0; Win64; x64) AppleWebKit/537.36 (KHTML, like Gecko) Chrome/109.0.0.0 Safari/537.36" etag="rddsQTOw2i3_iT-9SkCe" version="20.8.20" type="github">
  <diagram name="第 1 页" id="iqlMl0wmlH5SdkSsl21b">
    <mxGraphModel dx="1434" dy="764" grid="1" gridSize="10" guides="1" tooltips="1" connect="1" arrows="1" fold="1" page="1" pageScale="1" pageWidth="827" pageHeight="1169" math="0" shadow="0">
      <root>
        <mxCell id="0" />
        <mxCell id="1" parent="0" />
        <mxCell id="pWfocdxztDSID4WqnlSQ-4" value="" style="verticalLabelPosition=bottom;verticalAlign=top;html=1;shape=mxgraph.basic.polygon;polyCoords=[[0.25,0],[0.75,0],[1,0],[1,0.92],[0.75,0.92],[0.25,0.92],[0,0.92],[0,0]];polyline=0;rounded=0;shadow=0;glass=0;labelBackgroundColor=none;labelBorderColor=none;sketch=0;fillStyle=zigzag-line;fillColor=#e1d5e7;strokeColor=#9673a6;" parent="1" vertex="1">
          <mxGeometry x="450" y="640" width="370" height="130" as="geometry" />
        </mxCell>
        <mxCell id="pWfocdxztDSID4WqnlSQ-3" value="" style="verticalLabelPosition=bottom;verticalAlign=top;html=1;shape=mxgraph.basic.polygon;polyCoords=[[0.45,0.33],[0.45,0],[1,0],[1,0.79],[0.51,0.79],[0.51,1],[0,1],[0,0.33]];polyline=0;rounded=0;shadow=0;glass=0;labelBackgroundColor=none;labelBorderColor=none;sketch=0;fillStyle=zigzag-line;fillColor=#dae8fc;strokeColor=#6c8ebf;" parent="1" vertex="1">
          <mxGeometry x="41" y="130" width="780" height="630" as="geometry" />
        </mxCell>
        <mxCell id="pWfocdxztDSID4WqnlSQ-2" value="" style="verticalLabelPosition=bottom;verticalAlign=top;html=1;shape=mxgraph.basic.polygon;polyCoords=[[0.25,0],[0.75,0],[1,0],[1,1],[0.74,1],[0.25,1],[0,1],[0,0]];polyline=0;rounded=0;shadow=0;glass=0;labelBackgroundColor=none;labelBorderColor=none;fillStyle=zigzag-line;fillColor=#d5e8d4;strokeColor=#82b366;" parent="1" vertex="1">
          <mxGeometry x="40" y="130" width="340" height="200" as="geometry" />
        </mxCell>
        <mxCell id="-Pm3HfS8WUa2qpfIAWIM-27" style="edgeStyle=orthogonalEdgeStyle;rounded=1;orthogonalLoop=1;jettySize=auto;html=1;exitX=0.5;exitY=1;exitDx=0;exitDy=0;fontColor=#000000;labelBackgroundColor=none;sketch=1;curveFitting=1;jiggle=2;shadow=1;" parent="1" source="-Pm3HfS8WUa2qpfIAWIM-1" target="-Pm3HfS8WUa2qpfIAWIM-2" edge="1">
          <mxGeometry relative="1" as="geometry" />
        </mxCell>
        <mxCell id="-Pm3HfS8WUa2qpfIAWIM-1" value="执行reresh()" style="rounded=0;whiteSpace=wrap;html=1;sketch=1;curveFitting=1;jiggle=2;fontStyle=1" parent="1" vertex="1">
          <mxGeometry x="24" y="60" width="200" height="60" as="geometry" />
        </mxCell>
        <mxCell id="-Pm3HfS8WUa2qpfIAWIM-28" style="edgeStyle=orthogonalEdgeStyle;rounded=1;sketch=1;orthogonalLoop=1;jettySize=auto;html=1;exitX=0.5;exitY=1;exitDx=0;exitDy=0;entryX=0.5;entryY=0;entryDx=0;entryDy=0;shadow=1;labelBackgroundColor=none;fontColor=#000000;" parent="1" source="-Pm3HfS8WUa2qpfIAWIM-2" target="-Pm3HfS8WUa2qpfIAWIM-4" edge="1">
          <mxGeometry relative="1" as="geometry" />
        </mxCell>
        <mxCell id="-Pm3HfS8WUa2qpfIAWIM-2" value="prepareRefresh" style="rounded=0;whiteSpace=wrap;html=1;sketch=1;fontStyle=1" parent="1" vertex="1">
          <mxGeometry x="44" y="180" width="200" height="40" as="geometry" />
        </mxCell>
        <mxCell id="-Pm3HfS8WUa2qpfIAWIM-29" style="edgeStyle=orthogonalEdgeStyle;rounded=1;sketch=1;orthogonalLoop=1;jettySize=auto;html=1;exitX=0.5;exitY=1;exitDx=0;exitDy=0;entryX=0.5;entryY=0;entryDx=0;entryDy=0;shadow=1;labelBackgroundColor=none;fontColor=#000000;" parent="1" source="-Pm3HfS8WUa2qpfIAWIM-4" target="-Pm3HfS8WUa2qpfIAWIM-5" edge="1">
          <mxGeometry relative="1" as="geometry" />
        </mxCell>
        <mxCell id="-Pm3HfS8WUa2qpfIAWIM-4" value="obtainFreshBeanFactory" style="rounded=0;whiteSpace=wrap;html=1;sketch=1;fontStyle=1" parent="1" vertex="1">
          <mxGeometry x="64" y="280" width="200" height="40" as="geometry" />
        </mxCell>
        <mxCell id="-Pm3HfS8WUa2qpfIAWIM-30" style="edgeStyle=orthogonalEdgeStyle;rounded=1;sketch=1;orthogonalLoop=1;jettySize=auto;html=1;exitX=0.5;exitY=1;exitDx=0;exitDy=0;entryX=0.5;entryY=0;entryDx=0;entryDy=0;shadow=1;labelBackgroundColor=none;fontColor=#000000;" parent="1" source="-Pm3HfS8WUa2qpfIAWIM-5" target="-Pm3HfS8WUa2qpfIAWIM-6" edge="1">
          <mxGeometry relative="1" as="geometry" />
        </mxCell>
        <mxCell id="-Pm3HfS8WUa2qpfIAWIM-5" value="prepareBeanFactory" style="rounded=0;whiteSpace=wrap;html=1;sketch=1;fontStyle=1" parent="1" vertex="1">
          <mxGeometry x="84" y="380" width="200" height="40" as="geometry" />
        </mxCell>
        <mxCell id="-Pm3HfS8WUa2qpfIAWIM-31" style="edgeStyle=orthogonalEdgeStyle;rounded=1;sketch=1;orthogonalLoop=1;jettySize=auto;html=1;exitX=0.5;exitY=1;exitDx=0;exitDy=0;entryX=0.5;entryY=0;entryDx=0;entryDy=0;shadow=1;labelBackgroundColor=none;fontColor=#000000;" parent="1" source="-Pm3HfS8WUa2qpfIAWIM-6" target="-Pm3HfS8WUa2qpfIAWIM-13" edge="1">
          <mxGeometry relative="1" as="geometry" />
        </mxCell>
        <mxCell id="-Pm3HfS8WUa2qpfIAWIM-6" value="postProcessBeanFactory" style="rounded=0;whiteSpace=wrap;html=1;sketch=1;fontStyle=1" parent="1" vertex="1">
          <mxGeometry x="104" y="480" width="200" height="40" as="geometry" />
        </mxCell>
        <mxCell id="-Pm3HfS8WUa2qpfIAWIM-32" style="edgeStyle=orthogonalEdgeStyle;rounded=1;sketch=1;orthogonalLoop=1;jettySize=auto;html=1;exitX=0.5;exitY=1;exitDx=0;exitDy=0;entryX=0.5;entryY=0;entryDx=0;entryDy=0;shadow=1;labelBackgroundColor=none;fontColor=#000000;" parent="1" source="-Pm3HfS8WUa2qpfIAWIM-13" target="-Pm3HfS8WUa2qpfIAWIM-14" edge="1">
          <mxGeometry relative="1" as="geometry" />
        </mxCell>
        <mxCell id="-Pm3HfS8WUa2qpfIAWIM-13" value="invokeBeanFactoryPostProcessors" style="rounded=0;whiteSpace=wrap;html=1;sketch=1;fontStyle=1" parent="1" vertex="1">
          <mxGeometry x="124" y="580" width="206" height="40" as="geometry" />
        </mxCell>
        <mxCell id="-Pm3HfS8WUa2qpfIAWIM-33" style="edgeStyle=orthogonalEdgeStyle;rounded=1;sketch=1;orthogonalLoop=1;jettySize=auto;html=1;exitX=0.5;exitY=1;exitDx=0;exitDy=0;entryX=0.5;entryY=0;entryDx=0;entryDy=0;shadow=1;labelBackgroundColor=none;fontColor=#000000;" parent="1" source="-Pm3HfS8WUa2qpfIAWIM-14" target="-Pm3HfS8WUa2qpfIAWIM-15" edge="1">
          <mxGeometry relative="1" as="geometry" />
        </mxCell>
        <mxCell id="-Pm3HfS8WUa2qpfIAWIM-14" value="registerBeanPostProcessors" style="rounded=0;whiteSpace=wrap;html=1;sketch=1;fontStyle=1" parent="1" vertex="1">
          <mxGeometry x="144" y="680" width="200" height="40" as="geometry" />
        </mxCell>
        <mxCell id="-Pm3HfS8WUa2qpfIAWIM-34" style="edgeStyle=orthogonalEdgeStyle;rounded=1;sketch=1;orthogonalLoop=1;jettySize=auto;html=1;exitX=0.5;exitY=1;exitDx=0;exitDy=0;entryX=0.5;entryY=0;entryDx=0;entryDy=0;shadow=1;labelBackgroundColor=none;fontColor=#000000;" parent="1" source="-Pm3HfS8WUa2qpfIAWIM-15" target="-Pm3HfS8WUa2qpfIAWIM-16" edge="1">
          <mxGeometry relative="1" as="geometry" />
        </mxCell>
        <mxCell id="-Pm3HfS8WUa2qpfIAWIM-15" value="initMessageSource" style="rounded=0;whiteSpace=wrap;html=1;sketch=1;fontStyle=1" parent="1" vertex="1">
          <mxGeometry x="480" y="180" width="200" height="40" as="geometry" />
        </mxCell>
        <mxCell id="-Pm3HfS8WUa2qpfIAWIM-35" style="edgeStyle=orthogonalEdgeStyle;rounded=1;sketch=1;orthogonalLoop=1;jettySize=auto;html=1;exitX=0.5;exitY=1;exitDx=0;exitDy=0;shadow=1;labelBackgroundColor=none;fontColor=#000000;" parent="1" source="-Pm3HfS8WUa2qpfIAWIM-16" target="-Pm3HfS8WUa2qpfIAWIM-17" edge="1">
          <mxGeometry relative="1" as="geometry" />
        </mxCell>
        <mxCell id="-Pm3HfS8WUa2qpfIAWIM-16" value="initApplicationEventMulticaster" style="rounded=0;whiteSpace=wrap;html=1;sketch=1;fontStyle=1" parent="1" vertex="1">
          <mxGeometry x="496" y="280" width="200" height="40" as="geometry" />
        </mxCell>
        <mxCell id="-Pm3HfS8WUa2qpfIAWIM-36" style="edgeStyle=orthogonalEdgeStyle;rounded=1;sketch=1;orthogonalLoop=1;jettySize=auto;html=1;exitX=0.5;exitY=1;exitDx=0;exitDy=0;shadow=1;labelBackgroundColor=none;fontColor=#000000;" parent="1" source="-Pm3HfS8WUa2qpfIAWIM-17" target="-Pm3HfS8WUa2qpfIAWIM-18" edge="1">
          <mxGeometry relative="1" as="geometry" />
        </mxCell>
        <mxCell id="-Pm3HfS8WUa2qpfIAWIM-17" value="&lt;pre style=&quot;font-family: &amp;quot;JetBrains Mono&amp;quot;; font-size: 9.8pt;&quot;&gt;onRefresh&lt;/pre&gt;" style="rounded=0;whiteSpace=wrap;html=1;sketch=1;labelBackgroundColor=none;fontColor=#000000;fontStyle=1" parent="1" vertex="1">
          <mxGeometry x="516" y="380" width="200" height="40" as="geometry" />
        </mxCell>
        <mxCell id="-Pm3HfS8WUa2qpfIAWIM-37" style="edgeStyle=orthogonalEdgeStyle;rounded=1;sketch=1;orthogonalLoop=1;jettySize=auto;html=1;exitX=0.5;exitY=1;exitDx=0;exitDy=0;entryX=0.5;entryY=0;entryDx=0;entryDy=0;shadow=1;labelBackgroundColor=none;fontColor=#000000;" parent="1" source="-Pm3HfS8WUa2qpfIAWIM-18" target="-Pm3HfS8WUa2qpfIAWIM-19" edge="1">
          <mxGeometry relative="1" as="geometry" />
        </mxCell>
        <mxCell id="-Pm3HfS8WUa2qpfIAWIM-18" value="&lt;pre style=&quot;&quot;&gt;&lt;font face=&quot;JetBrains Mono&quot;&gt;registerListeners&lt;span style=&quot;color: rgb(169, 183, 198); font-size: 9.8pt;&quot;&gt;&lt;br&gt;&lt;/span&gt;&lt;/font&gt;&lt;/pre&gt;" style="rounded=0;whiteSpace=wrap;html=1;sketch=1;labelBackgroundColor=none;fontStyle=1" parent="1" vertex="1">
          <mxGeometry x="536" y="480" width="200" height="40" as="geometry" />
        </mxCell>
        <mxCell id="-Pm3HfS8WUa2qpfIAWIM-38" style="edgeStyle=orthogonalEdgeStyle;rounded=1;sketch=1;orthogonalLoop=1;jettySize=auto;html=1;exitX=0.5;exitY=1;exitDx=0;exitDy=0;entryX=0.5;entryY=0;entryDx=0;entryDy=0;shadow=1;labelBackgroundColor=none;fontColor=#000000;" parent="1" source="-Pm3HfS8WUa2qpfIAWIM-19" target="-Pm3HfS8WUa2qpfIAWIM-20" edge="1">
          <mxGeometry relative="1" as="geometry" />
        </mxCell>
        <mxCell id="-Pm3HfS8WUa2qpfIAWIM-19" value="finishBeanFactoryInitialization" style="rounded=0;whiteSpace=wrap;html=1;sketch=1;fontStyle=1" parent="1" vertex="1">
          <mxGeometry x="556" y="580" width="200" height="40" as="geometry" />
        </mxCell>
        <mxCell id="-Pm3HfS8WUa2qpfIAWIM-20" value="finishRefresh" style="rounded=0;whiteSpace=wrap;html=1;sketch=1;fontStyle=1" parent="1" vertex="1">
          <mxGeometry x="576" y="680" width="200" height="40" as="geometry" />
        </mxCell>
        <mxCell id="-Pm3HfS8WUa2qpfIAWIM-39" value="获取容器" style="text;html=1;strokeColor=none;fillColor=none;align=center;verticalAlign=middle;whiteSpace=wrap;rounded=0;fontColor=#000000;" parent="1" vertex="1">
          <mxGeometry x="174" y="250" width="60" height="30" as="geometry" />
        </mxCell>
        <mxCell id="-Pm3HfS8WUa2qpfIAWIM-40" value="创建容器前准备，初始化属性" style="text;html=1;strokeColor=none;fillColor=none;align=center;verticalAlign=middle;whiteSpace=wrap;rounded=0;fontColor=#000000;fontStyle=0" parent="1" vertex="1">
          <mxGeometry x="159" y="150" width="170" height="30" as="geometry" />
        </mxCell>
        <mxCell id="-Pm3HfS8WUa2qpfIAWIM-42" value="为容器创建类加载器、上下文环境等" style="text;html=1;strokeColor=none;fillColor=none;align=center;verticalAlign=middle;whiteSpace=wrap;rounded=0;fontColor=#000000;" parent="1" vertex="1">
          <mxGeometry x="190" y="350" width="216" height="30" as="geometry" />
        </mxCell>
        <mxCell id="-Pm3HfS8WUa2qpfIAWIM-44" value="容器初始化后扩展功能" style="text;html=1;align=center;verticalAlign=middle;resizable=0;points=[];autosize=1;strokeColor=none;fillColor=none;fontColor=#000000;" parent="1" vertex="1">
          <mxGeometry x="210" y="450" width="140" height="30" as="geometry" />
        </mxCell>
        <mxCell id="-Pm3HfS8WUa2qpfIAWIM-45" value="执行BeanFactory的后置处理器" style="text;html=1;align=center;verticalAlign=middle;resizable=0;points=[];autosize=1;strokeColor=none;fillColor=none;fontColor=#000000;" parent="1" vertex="1">
          <mxGeometry x="234" y="550" width="190" height="30" as="geometry" />
        </mxCell>
        <mxCell id="-Pm3HfS8WUa2qpfIAWIM-46" value="注册Bean的后置处理器" style="text;html=1;align=center;verticalAlign=middle;resizable=0;points=[];autosize=1;strokeColor=none;fillColor=none;fontColor=#000000;" parent="1" vertex="1">
          <mxGeometry x="244" y="650" width="150" height="30" as="geometry" />
        </mxCell>
        <mxCell id="-Pm3HfS8WUa2qpfIAWIM-47" value="初始化国际化工具" style="text;html=1;align=center;verticalAlign=middle;resizable=0;points=[];autosize=1;strokeColor=none;fillColor=none;fontColor=#000000;" parent="1" vertex="1">
          <mxGeometry x="576" y="150" width="120" height="30" as="geometry" />
        </mxCell>
        <mxCell id="-Pm3HfS8WUa2qpfIAWIM-48" value="初始化事件广播器" style="text;html=1;align=center;verticalAlign=middle;resizable=0;points=[];autosize=1;strokeColor=none;fillColor=none;fontColor=#000000;" parent="1" vertex="1">
          <mxGeometry x="596" y="250" width="120" height="30" as="geometry" />
        </mxCell>
        <mxCell id="-Pm3HfS8WUa2qpfIAWIM-51" value="注册监听器" style="text;html=1;align=center;verticalAlign=middle;resizable=0;points=[];autosize=1;strokeColor=none;fillColor=none;fontColor=#000000;" parent="1" vertex="1">
          <mxGeometry x="636" y="450" width="80" height="30" as="geometry" />
        </mxCell>
        <mxCell id="-Pm3HfS8WUa2qpfIAWIM-52" value="实例化剩下的所有的Bean" style="text;html=1;align=center;verticalAlign=middle;resizable=0;points=[];autosize=1;strokeColor=none;fillColor=none;fontColor=#000000;" parent="1" vertex="1">
          <mxGeometry x="656" y="550" width="160" height="30" as="geometry" />
        </mxCell>
        <mxCell id="-Pm3HfS8WUa2qpfIAWIM-53" value="完成此上下文的刷新，调用 LifecycleProcessor &lt;br&gt;的 onRefresh（）方法并发布" style="text;html=1;align=center;verticalAlign=middle;resizable=0;points=[];autosize=1;strokeColor=none;fillColor=none;fontColor=#000000;" parent="1" vertex="1">
          <mxGeometry x="525" y="720" width="270" height="40" as="geometry" />
        </mxCell>
        <mxCell id="bGt8v3WfayrR1c1Faz1l-1" value="容器实例化" style="text;html=1;strokeColor=none;fillColor=none;align=center;verticalAlign=middle;whiteSpace=wrap;rounded=0;fontColor=#000000;fontStyle=3;fontSize=17;" vertex="1" parent="1">
          <mxGeometry x="269" y="215" width="100" height="30" as="geometry" />
        </mxCell>
        <mxCell id="bGt8v3WfayrR1c1Faz1l-2" value="容器初始化" style="text;html=1;strokeColor=none;fillColor=none;align=center;verticalAlign=middle;whiteSpace=wrap;rounded=0;fontColor=#000000;fontSize=17;fontStyle=3;" vertex="1" parent="1">
          <mxGeometry x="50" y="540" width="90" height="30" as="geometry" />
        </mxCell>
        <mxCell id="bGt8v3WfayrR1c1Faz1l-3" value="容器初始化" style="text;html=1;strokeColor=none;fillColor=none;align=center;verticalAlign=middle;whiteSpace=wrap;rounded=0;fontColor=#000000;fontSize=17;fontStyle=3;" vertex="1" parent="1">
          <mxGeometry x="716" y="330" width="90" height="30" as="geometry" />
        </mxCell>
        <mxCell id="bGt8v3WfayrR1c1Faz1l-4" value="收尾阶段" style="text;html=1;strokeColor=none;fillColor=none;align=center;verticalAlign=middle;whiteSpace=wrap;rounded=0;fontColor=#000000;fontSize=17;fontStyle=3;" vertex="1" parent="1">
          <mxGeometry x="460" y="650" width="90" height="30" as="geometry" />
        </mxCell>
      </root>
    </mxGraphModel>
  </diagram>
</mxfile>
